<svg height="512pt" viewBox="0 0 512 512" width="512pt" xmlns="http://www.w3.org/2000/svg">
	<path 
		style="opacity:1;color:#FFFFFF;fill:url(#linearGradient9521);fill-opacity:1;fill-rule:nonzero;stroke:none;stroke-width:1;stroke-linecap:butt;stroke-linejoin:miter;marker:none;marker-start:none;marker-mid:none;marker-end:none;stroke-miterlimit:4;stroke-dasharray:none;stroke-dashoffset:0;stroke-opacity:1;visibility:visible;display:inline;overflow:visible"
		d="m437 146h-71v-71c0-41.355469-33.644531-75-75-75h-70c-41.355469 0-75 33.644531-75 75v71h-71c-41.355469 0-75 33.644531-75 75v70c0 41.355469 33.644531 75 75 75h71v71c0 41.355469 33.644531 75 75 75h70c41.355469 0 75-33.644531 75-75v-71h71c41.355469 0 75-33.644531 75-75v-70c0-41.355469-33.644531-75-75-75zm-362 190c-24.8125 0-45-20.1875-45-45v-70c0-24.8125 20.1875-45 45-45h181c8.285156 0 15-6.714844 15-15s-6.714844-15-15-15h-80v-71c0-24.8125 20.1875-45 45-45h70c24.8125 0 45 20.1875 45 45v166h-175c-8.285156 0-15 6.714844-15 15v80zm407-45c0 24.8125-20.1875 45-45 45h-181c-8.285156 0-15 6.714844-15 15s6.714844 15 15 15h80v71c0 24.8125-20.1875 45-45 45h-70c-24.8125 0-45-20.1875-45-45v-166h175c8.285156 0 15-6.714844 15-15v-80h71c24.8125 0 45 20.1875 45 45zm0 0"/>
	<path
		style="opacity:1;color:#FFFFFF;fill:url(#linearGradient9521);fill-opacity:1;fill-rule:nonzero;stroke:none;stroke-width:1;stroke-linecap:butt;stroke-linejoin:miter;marker:none;marker-start:none;marker-mid:none;marker-end:none;stroke-miterlimit:4;stroke-dasharray:none;stroke-dashoffset:0;stroke-opacity:1;visibility:visible;display:inline;overflow:visible"
		d="m236 90c0 8.285156-6.714844 15-15 15s-15-6.714844-15-15 6.714844-15 15-15 15 6.714844 15 15zm0 0"/>
	<path
		style="opacity:1;color:#FFFFFF;fill:url(#linearGradient9521);fill-opacity:1;fill-rule:nonzero;stroke:none;stroke-width:1;stroke-linecap:butt;stroke-linejoin:miter;marker:none;marker-start:none;marker-mid:none;marker-end:none;stroke-miterlimit:4;stroke-dasharray:none;stroke-dashoffset:0;stroke-opacity:1;visibility:visible;display:inline;overflow:visible"
		d="m306 422c0 8.285156-6.714844 15-15 15s-15-6.714844-15-15 6.714844-15 15-15 15 6.714844 15 15zm0 0"/>
</svg>